<!DOCTYPE svg PUBLIC "-//W3C//DTD SVG 1.1//EN" "http://www.w3.org/Graphics/SVG/1.1/DTD/svg11.dtd">
<!-- Uploaded to: SVG Repo, www.svgrepo.com, Transformed by: SVG Repo Mixer Tools -->
<svg fill="#00ff33" height="800px" width="800px" version="1.1" id="Layer_1" xmlns="http://www.w3.org/2000/svg" xmlns:xlink="http://www.w3.org/1999/xlink" viewBox="-51.2 -51.2 614.40 614.40" xml:space="preserve" stroke="#00ff33" stroke-width="0.00512">
<g id="SVGRepo_bgCarrier" stroke-width="0">
<rect x="-51.2" y="-51.2" width="614.40" height="614.40" rx="49.152" fill="#d7fedf" strokewidth="0"/>
</g>
<g id="SVGRepo_tracerCarrier" stroke-linecap="round" stroke-linejoin="round"/>
<g id="SVGRepo_iconCarrier"> <g> <g> <path d="M256,0C114.837,0,0,114.837,0,256s114.837,256,256,256s256-114.837,256-256S397.163,0,256,0z M256,490.667 c-45.376,0-87.659-13.163-123.605-35.563l52.843-26.453c17.003-9.856,29.141-54.592,33.579-73.365 c1.216-5.141-1.515-10.389-6.421-12.352c-0.32-0.128-29.269-11.733-47.915-22.848c5.717-16.085,16.555-53.867,16.555-109.931 c0-64.576,28.992-93.995,55.936-93.995c2.837,0,5.547-1.109,7.552-3.115l6.336-6.315c54.613,1.643,80.107,34.624,80.107,103.445 c0,56.064,10.816,93.845,16.555,109.931c-18.624,11.093-47.595,22.72-47.915,22.848c-4.907,1.963-7.637,7.211-6.421,12.352 c4.437,18.773,16.576,63.509,34.155,73.685l52.245,26.112C343.637,477.504,301.376,490.667,256,490.667z M398.037,442.368 c-1.003-1.579-2.261-3.008-4.075-3.904l-56.491-28.224c-5.248-3.179-14.613-25.984-21.312-51.072 c12.8-5.461,36.757-16.277,50.667-26.155c4.181-2.965,5.653-8.491,3.52-13.163c-0.192-0.384-18.048-40.192-18.048-109.696 c0-82.837-35.584-124.843-105.792-124.843c-2.837,0-5.547,1.109-7.552,3.115l-6.571,6.571 c-35.84,2.859-72.661,39.147-72.661,115.136c0,69.504-17.877,109.312-18.048,109.696c-2.133,4.672-0.661,10.197,3.52,13.163 c13.909,9.877,37.845,20.693,50.667,26.155c-6.699,25.067-16.021,47.829-20.736,50.731l-57.088,28.544 c-1.813,0.896-3.072,2.347-4.096,3.925C57.792,399.424,21.333,331.968,21.333,256c0-129.387,105.28-234.667,234.667-234.667 S490.667,126.613,490.667,256C490.667,331.989,454.208,399.445,398.037,442.368z"/> </g> </g> </g>
</svg>