<!DOCTYPE svg PUBLIC "-//W3C//DTD SVG 1.1//EN" "http://www.w3.org/Graphics/SVG/1.1/DTD/svg11.dtd">
<!-- Uploaded to: SVG Repo, www.svgrepo.com, Transformed by: SVG Repo Mixer Tools -->
<svg fill="#ffffff" height="800px" width="800px" version="1.1" id="Layer_1" xmlns="http://www.w3.org/2000/svg" xmlns:xlink="http://www.w3.org/1999/xlink" viewBox="0 0 512 512" xml:space="preserve">
<g id="SVGRepo_bgCarrier" stroke-width="0"/>
<g id="SVGRepo_tracerCarrier" stroke-linecap="round" stroke-linejoin="round"/>
<g id="SVGRepo_iconCarrier"> <g> <g> <g> <path d="M234.923,223.979c0-26.752-18.112-49.941-44.053-56.427l-32.021-8l-1.344-5.355c8.299-9.173,14.208-20.885,16.661-33.045 c5.696-2.944,9.813-8.533,10.667-15.253l2.304-18.56c0.704-5.632-1.024-11.307-4.757-15.573 c-1.152-1.301-2.475-2.453-3.883-3.413l0.533-11.328l1.941-1.941c5.504-5.845,12.949-18.325,1.173-36.331 C176.555,10.197,165.035,0,141.952,0c-6.805,0-22.144,0-37.035,9.323C61.013,10.88,55.851,34.539,55.851,52.395 c0,3.52,0.64,10.112,1.237,15.616c-1.579,1.003-3.029,2.24-4.288,3.669c-3.797,4.309-5.547,10.005-4.821,15.659l2.304,18.56 c0.875,6.955,5.291,12.715,11.797,15.552c2.389,11.627,7.979,22.891,15.765,31.829l-1.557,6.272l-32.021,8 C18.347,174.037,0.213,197.248,0.213,224c0,2.837,1.109,5.568,3.115,7.552s4.715,3.115,7.552,3.115l213.376-0.021 C230.144,234.645,234.923,229.867,234.923,223.979z M23.104,213.312c3.669-12.16,13.504-21.845,26.389-25.088l38.229-9.557 c3.819-0.96,6.805-3.947,7.765-7.765l4.544-18.197c0.939-3.755-0.235-7.723-3.072-10.368 c-8.299-7.808-13.803-19.221-14.699-30.528c-0.448-5.525-5.184-8.597-10.752-8.597l-2.752-16.981c3.072,0,5.973-1.301,8-3.605 c2.027-2.283,2.965-5.333,2.581-8.384c-0.811-6.443-2.112-18.091-2.112-21.845c0-11.051,0-21.483,31.189-21.803 c2.176-0.021,4.309-0.704,6.101-1.984c10.155-7.275,21.845-7.275,27.456-7.275c11.029,0,18.325,2.965,22.336,9.088 c4.331,6.635,2.56,8.512,1.365,9.813l-4.629,4.629c-1.877,1.877-2.987,4.373-3.115,7.019L156.8,75.093 c-0.128,2.901,0.213,4.928,2.197,7.04c2.005,2.112,4.053,2.539,6.955,2.56l-1.365,17.344c-5.568,0-10.176,4.267-10.624,9.813 c-0.939,11.499-6.848,23.424-15.424,31.125c-2.923,2.624-4.181,6.677-3.221,10.517l4.352,17.429 c0.96,3.819,3.925,6.827,7.765,7.765l38.229,9.557c12.843,3.221,22.656,12.907,26.325,25.088L23.104,213.312z"/> <path d="M467.733,167.509l-32.021-8l-1.344-5.355c8.299-9.173,14.208-20.864,16.64-33.024c5.696-2.923,9.835-8.533,10.688-15.253 L464,87.317c0.704-5.611-1.024-11.285-4.757-15.552c-1.173-1.323-2.496-2.475-3.904-3.435l0.533-11.307l1.963-1.963 c5.504-5.845,12.949-18.325,1.152-36.331C453.376,10.197,441.877,0,418.816,0c-6.784,0-22.123,0-37.013,9.323 c-43.904,1.557-49.067,25.216-49.067,43.072c0,3.52,0.64,10.112,1.237,15.616c-1.579,1.003-3.008,2.219-4.267,3.648 c-3.797,4.267-5.568,9.984-4.864,15.68l2.325,18.56c0.875,6.955,5.291,12.715,11.797,15.552 c2.389,11.627,7.957,22.891,15.744,31.829l-1.557,6.272l-32.021,8c-25.92,6.485-44.032,29.696-44.032,56.448 c0,2.837,1.109,5.568,3.115,7.552c2.005,1.984,4.715,3.115,7.552,3.115l213.355-0.064c5.888,0,10.667-4.779,10.667-10.667 C511.787,197.184,493.675,173.995,467.733,167.509z M299.989,213.312c3.669-12.16,13.483-21.845,26.325-25.088l38.229-9.557 c3.819-0.939,6.805-3.925,7.765-7.744l4.565-18.197c0.939-3.755-0.235-7.723-3.072-10.368 c-8.299-7.787-13.781-19.2-14.699-30.528c-0.448-5.547-5.184-8.619-10.752-8.619L345.6,86.229c3.072,0,5.973-1.301,8-3.605 c2.027-2.283,2.965-5.333,2.581-8.384c-0.811-6.443-2.112-18.091-2.112-21.845c0-11.051,0-21.483,31.189-21.803 c2.176-0.021,4.309-0.704,6.101-1.984c10.155-7.275,21.845-7.275,27.456-7.275c16.384,0,20.864,6.848,22.357,9.088 c4.331,6.635,2.56,8.512,1.365,9.792l-4.651,4.629c-1.877,1.877-2.987,4.395-3.115,7.04l-1.131,23.211 c-0.128,2.901,0.213,4.928,2.219,7.04c1.984,2.112,4.053,2.539,6.955,2.56l-1.387,17.344c-5.568,0-10.176,4.288-10.624,9.835 c-0.917,11.477-6.827,23.403-15.403,31.104c-2.923,2.624-4.181,6.677-3.221,10.517l4.352,17.429 c0.96,3.819,3.925,6.827,7.765,7.765l38.229,9.557c12.843,3.221,22.656,12.907,26.325,25.088L299.989,213.312z"/> <path d="M387.328,259.136l-42.667,42.667c-4.16,4.16-4.16,10.923,0,15.083c2.091,2.069,4.821,3.115,7.552,3.115 c2.731,0,5.461-1.045,7.531-3.115l42.667-42.667c4.16-4.16,4.16-10.923,0-15.083 C398.251,254.976,391.488,254.976,387.328,259.136z"/> <path d="M318.869,444.885l-32.021-8l-1.344-5.355c8.299-9.173,14.208-20.885,16.661-33.045 c5.696-2.944,9.813-8.533,10.667-15.253l2.304-18.56c0.704-5.632-1.024-11.307-4.757-15.573 c-1.152-1.301-2.475-2.453-3.883-3.413l0.533-11.328l1.941-1.941c5.504-5.845,12.949-18.325,1.173-36.331 c-5.589-8.555-17.109-18.752-40.192-18.752c-6.805,0-22.144,0-37.035,9.323c-43.904,1.557-49.067,25.216-49.067,43.072 c0,3.52,0.64,10.112,1.237,15.616c-1.579,1.003-3.029,2.24-4.288,3.669c-3.797,4.309-5.547,10.005-4.821,15.659l2.304,18.56 c0.875,6.955,5.291,12.715,11.797,15.552c2.389,11.627,7.979,22.891,15.765,31.829l-1.557,6.272l-32.021,8 c-25.92,6.485-44.053,29.696-44.053,56.448c0,2.837,1.109,5.568,3.115,7.552S136.043,512,138.88,512l213.376-0.021 c5.888,0,10.667-4.779,10.667-10.667C362.923,474.56,344.811,451.371,318.869,444.885z M151.104,490.645 c3.669-12.16,13.504-21.845,26.389-25.088L215.723,456c3.819-0.96,6.805-3.947,7.765-7.765l4.544-18.197 c0.939-3.755-0.235-7.723-3.072-10.368c-8.299-7.808-13.803-19.221-14.699-30.528c-0.448-5.525-5.184-8.597-10.752-8.597 l-2.752-16.981c3.072,0,5.973-1.301,8-3.605c2.027-2.283,2.965-5.333,2.581-8.384c-0.811-6.443-2.112-18.091-2.112-21.845 c0-11.051,0-21.483,31.189-21.803c2.176-0.021,4.309-0.704,6.101-1.984c10.155-7.275,21.845-7.275,27.456-7.275 c11.029,0,18.325,2.965,22.336,9.088c4.331,6.635,2.56,8.512,1.365,9.813l-4.629,4.629c-1.877,1.877-2.987,4.373-3.115,7.019 l-1.131,23.211c-0.128,2.901,0.213,4.928,2.197,7.04c2.005,2.112,4.053,2.539,6.955,2.56l-1.365,17.344 c-5.568,0-10.176,4.267-10.624,9.813c-0.939,11.499-6.848,23.424-15.424,31.125c-2.923,2.624-4.181,6.677-3.221,10.517 l4.352,17.429c0.96,3.819,3.925,6.827,7.765,7.765l38.229,9.557c12.843,3.221,22.656,12.907,26.325,25.088L151.104,490.645z"/> <path d="M149.547,320c2.731,0,5.461-1.045,7.531-3.115c4.16-4.16,4.16-10.923,0-15.083l-42.667-42.667 c-4.16-4.16-10.923-4.16-15.083,0c-4.16,4.16-4.16,10.923,0,15.083l42.667,42.667C144.085,318.955,146.816,320,149.547,320z"/> </g> </g> </g> </g>
</svg>